<mxfile host="65bd71144e">
    <diagram id="lCBPKQRJufz5h9ydlIqT" name="PÃ¡gina-1">
        <mxGraphModel dx="1035" dy="431" grid="1" gridSize="10" guides="1" tooltips="1" connect="1" arrows="1" fold="1" page="1" pageScale="1" pageWidth="827" pageHeight="1169" math="0" shadow="0">
            <root>
                <mxCell id="0"/>
                <mxCell id="1" parent="0"/>
                <mxCell id="2" value="Client" style="ellipse;whiteSpace=wrap;html=1;fillColor=#e1d5e7;strokeColor=#9673a6;fontColor=#0A0A0A;" vertex="1" parent="1">
                    <mxGeometry x="60" y="190" width="210" height="130" as="geometry"/>
                </mxCell>
                <mxCell id="3" value="Investiment" style="ellipse;whiteSpace=wrap;html=1;fillColor=#d5e8d4;strokeColor=#82b366;fontColor=#0A0A0A;" vertex="1" parent="1">
                    <mxGeometry x="60" y="420" width="210" height="130" as="geometry"/>
                </mxCell>
                <mxCell id="4" value="" style="endArrow=classic;html=1;rounded=0;exitX=0.919;exitY=0.231;exitDx=0;exitDy=0;exitPerimeter=0;fontColor=#0A0A0A;" edge="1" parent="1" source="2" target="5">
                    <mxGeometry width="50" height="50" relative="1" as="geometry">
                        <mxPoint x="410" y="500" as="sourcePoint"/>
                        <mxPoint x="310" y="200" as="targetPoint"/>
                    </mxGeometry>
                </mxCell>
                <mxCell id="5" value="codClient" style="ellipse;whiteSpace=wrap;html=1;fillColor=#e1d5e7;strokeColor=#9673a6;fontColor=#0A0A0A;" vertex="1" parent="1">
                    <mxGeometry x="340" y="190" width="120" height="40" as="geometry"/>
                </mxCell>
                <mxCell id="6" value="" style="endArrow=classic;html=1;rounded=0;exitX=0.952;exitY=0.231;exitDx=0;exitDy=0;exitPerimeter=0;fontColor=#0A0A0A;" edge="1" parent="1" target="7">
                    <mxGeometry width="50" height="50" relative="1" as="geometry">
                        <mxPoint x="270" y="250.02999999999997" as="sourcePoint"/>
                        <mxPoint x="320.08" y="230" as="targetPoint"/>
                    </mxGeometry>
                </mxCell>
                <mxCell id="7" value="Saldo" style="ellipse;whiteSpace=wrap;html=1;fillColor=#e1d5e7;strokeColor=#9673a6;fontColor=#0A0A0A;" vertex="1" parent="1">
                    <mxGeometry x="350.08" y="240" width="120" height="40" as="geometry"/>
                </mxCell>
                <mxCell id="8" value="" style="endArrow=classic;html=1;rounded=0;exitX=0.919;exitY=0.231;exitDx=0;exitDy=0;exitPerimeter=0;fontColor=#0A0A0A;" edge="1" parent="1" target="9">
                    <mxGeometry width="50" height="50" relative="1" as="geometry">
                        <mxPoint x="263.06999999999994" y="460.03" as="sourcePoint"/>
                        <mxPoint x="320.08" y="440" as="targetPoint"/>
                    </mxGeometry>
                </mxCell>
                <mxCell id="9" value="codAtivo" style="ellipse;whiteSpace=wrap;html=1;fillColor=#d5e8d4;strokeColor=#82b366;fontColor=#0A0A0A;" vertex="1" parent="1">
                    <mxGeometry x="350.08" y="430" width="120" height="40" as="geometry"/>
                </mxCell>
                <mxCell id="10" value="" style="endArrow=classic;html=1;rounded=0;exitX=0.995;exitY=0.577;exitDx=0;exitDy=0;exitPerimeter=0;fontColor=#0A0A0A;" edge="1" parent="1" target="11">
                    <mxGeometry width="50" height="50" relative="1" as="geometry">
                        <mxPoint x="270" y="495.01" as="sourcePoint"/>
                        <mxPoint x="328.06" y="490" as="targetPoint"/>
                    </mxGeometry>
                </mxCell>
                <mxCell id="11" value="qtdeAtivo" style="ellipse;whiteSpace=wrap;html=1;fillColor=#d5e8d4;strokeColor=#82b366;fontColor=#0A0A0A;" vertex="1" parent="1">
                    <mxGeometry x="358.06" y="480" width="120" height="40" as="geometry"/>
                </mxCell>
                <mxCell id="12" value="" style="endArrow=classic;html=1;rounded=0;exitX=0.924;exitY=0.808;exitDx=0;exitDy=0;exitPerimeter=0;fontColor=#0A0A0A;" edge="1" parent="1" source="3" target="13">
                    <mxGeometry width="50" height="50" relative="1" as="geometry">
                        <mxPoint x="262.02" y="545.01" as="sourcePoint"/>
                        <mxPoint x="320.08" y="540" as="targetPoint"/>
                    </mxGeometry>
                </mxCell>
                <mxCell id="13" value="Valor" style="ellipse;whiteSpace=wrap;html=1;fillColor=#d5e8d4;strokeColor=#82b366;fontColor=#0A0A0A;" vertex="1" parent="1">
                    <mxGeometry x="350.08" y="530" width="120" height="40" as="geometry"/>
                </mxCell>
                <mxCell id="14" value="Client" style="swimlane;fontStyle=0;childLayout=stackLayout;horizontal=1;startSize=30;horizontalStack=0;resizeParent=1;resizeParentMax=0;resizeLast=0;collapsible=1;marginBottom=0;fillColor=#e1d5e7;strokeColor=#9673a6;fontColor=#0A0A0A;" vertex="1" parent="1">
                    <mxGeometry x="60" y="700" width="160" height="90" as="geometry"/>
                </mxCell>
                <mxCell id="15" value="codCliente: integer - PK" style="text;strokeColor=none;fillColor=none;align=left;verticalAlign=middle;spacingLeft=4;spacingRight=4;overflow=hidden;points=[[0,0.5],[1,0.5]];portConstraint=eastwest;rotatable=0;" vertex="1" parent="14">
                    <mxGeometry y="30" width="160" height="30" as="geometry"/>
                </mxCell>
                <mxCell id="16" value="Saldo: decimal" style="text;strokeColor=none;fillColor=none;align=left;verticalAlign=middle;spacingLeft=4;spacingRight=4;overflow=hidden;points=[[0,0.5],[1,0.5]];portConstraint=eastwest;rotatable=0;" vertex="1" parent="14">
                    <mxGeometry y="60" width="160" height="30" as="geometry"/>
                </mxCell>
                <mxCell id="17" value="Investiment" style="swimlane;fontStyle=0;childLayout=stackLayout;horizontal=1;startSize=30;horizontalStack=0;resizeParent=1;resizeParentMax=0;resizeLast=0;collapsible=1;marginBottom=0;fillColor=#d5e8d4;strokeColor=#82b366;fontColor=#0A0A0A;" vertex="1" parent="1">
                    <mxGeometry x="640" y="700" width="160" height="120" as="geometry"/>
                </mxCell>
                <mxCell id="18" value="codAtivo: integer - PK" style="text;strokeColor=none;fillColor=none;align=left;verticalAlign=middle;spacingLeft=4;spacingRight=4;overflow=hidden;points=[[0,0.5],[1,0.5]];portConstraint=eastwest;rotatable=0;" vertex="1" parent="17">
                    <mxGeometry y="30" width="160" height="30" as="geometry"/>
                </mxCell>
                <mxCell id="19" value="qtdeAtivo: integer" style="text;strokeColor=none;fillColor=none;align=left;verticalAlign=middle;spacingLeft=4;spacingRight=4;overflow=hidden;points=[[0,0.5],[1,0.5]];portConstraint=eastwest;rotatable=0;" vertex="1" parent="17">
                    <mxGeometry y="60" width="160" height="30" as="geometry"/>
                </mxCell>
                <mxCell id="20" value="valor: decimal" style="text;strokeColor=none;fillColor=none;align=left;verticalAlign=middle;spacingLeft=4;spacingRight=4;overflow=hidden;points=[[0,0.5],[1,0.5]];portConstraint=eastwest;rotatable=0;" vertex="1" parent="17">
                    <mxGeometry y="90" width="160" height="30" as="geometry"/>
                </mxCell>
                <mxCell id="21" value="ClientInvestiment" style="swimlane;fontStyle=0;childLayout=stackLayout;horizontal=1;startSize=30;horizontalStack=0;resizeParent=1;resizeParentMax=0;resizeLast=0;collapsible=1;marginBottom=0;fillColor=#fad7ac;strokeColor=#b46504;fontColor=#0A0A0A;" vertex="1" parent="1">
                    <mxGeometry x="350.08000000000004" y="700" width="160" height="120" as="geometry"/>
                </mxCell>
                <mxCell id="22" value="codCliente: integer - FK" style="text;strokeColor=none;fillColor=none;align=left;verticalAlign=middle;spacingLeft=4;spacingRight=4;overflow=hidden;points=[[0,0.5],[1,0.5]];portConstraint=eastwest;rotatable=0;" vertex="1" parent="21">
                    <mxGeometry y="30" width="160" height="30" as="geometry"/>
                </mxCell>
                <mxCell id="23" value="codAtivo: integer - FK" style="text;strokeColor=none;fillColor=none;align=left;verticalAlign=middle;spacingLeft=4;spacingRight=4;overflow=hidden;points=[[0,0.5],[1,0.5]];portConstraint=eastwest;rotatable=0;" vertex="1" parent="21">
                    <mxGeometry y="60" width="160" height="30" as="geometry"/>
                </mxCell>
                <mxCell id="24" value="qtdeAtivoCliente: integer" style="text;strokeColor=none;fillColor=none;align=left;verticalAlign=middle;spacingLeft=4;spacingRight=4;overflow=hidden;points=[[0,0.5],[1,0.5]];portConstraint=eastwest;rotatable=0;" vertex="1" parent="21">
                    <mxGeometry y="90" width="160" height="30" as="geometry"/>
                </mxCell>
                <mxCell id="25" value="" style="endArrow=classic;html=1;rounded=0;entryX=0;entryY=0.5;entryDx=0;entryDy=0;fontColor=#0A0A0A;" edge="1" parent="1" source="15" target="22">
                    <mxGeometry width="50" height="50" relative="1" as="geometry">
                        <mxPoint x="420" y="730" as="sourcePoint"/>
                        <mxPoint x="470" y="680" as="targetPoint"/>
                    </mxGeometry>
                </mxCell>
                <mxCell id="26" value="" style="endArrow=classic;html=1;rounded=0;exitX=0;exitY=0.5;exitDx=0;exitDy=0;entryX=1;entryY=0.5;entryDx=0;entryDy=0;fontColor=#0A0A0A;" edge="1" parent="1" source="18" target="23">
                    <mxGeometry width="50" height="50" relative="1" as="geometry">
                        <mxPoint x="420" y="730" as="sourcePoint"/>
                        <mxPoint x="470" y="680" as="targetPoint"/>
                    </mxGeometry>
                </mxCell>
            </root>
        </mxGraphModel>
    </diagram>
</mxfile>